<?xml version="1.0" encoding="utf-8"?>
<!-- Generator: Adobe Illustrator 17.0.0, SVG Export Plug-In . SVG Version: 6.00 Build 0)  -->
<!DOCTYPE svg PUBLIC "-//W3C//DTD SVG 1.1//EN" "http://www.w3.org/Graphics/SVG/1.1/DTD/svg11.dtd">
<svg version="1.1" id="Layer_1" xmlns="http://www.w3.org/2000/svg" xmlns:xlink="http://www.w3.org/1999/xlink" x="0px" y="0px"
	 width="70.04px" height="103.086px" viewBox="49.234 -28.399 70.04 103.086" enable-background="new 49.234 -28.399 70.04 103.086"
	 xml:space="preserve">
<title>Group 7</title>
<desc>Created with Sketch.</desc>
<linearGradient id="SVGID_1_" gradientUnits="userSpaceOnUse" x1="-713.0051" y1="-12783.4219" x2="-748.028" y2="-12702.1455" gradientTransform="matrix(0.9932 -0.1165 -0.1165 -0.9932 -673.9698 -12718.0518)">
	<stop  offset="0.3668" style="stop-color:#0000FF"/>
	<stop  offset="0.4383" style="stop-color:#0000FA"/>
	<stop  offset="0.524" style="stop-color:#0000EB"/>
	<stop  offset="0.6172" style="stop-color:#0000D3"/>
	<stop  offset="0.7155" style="stop-color:#0000B1"/>
	<stop  offset="0.8168" style="stop-color:#000086"/>
	<stop  offset="0.8712" style="stop-color:#00006C"/>
</linearGradient>
<path fill="none" stroke="url(#SVGID_1_)" stroke-width="9" stroke-miterlimit="10" d="M98.38,5.618l10.528,8.318l0.353,0.279
	l0.108,0.086c3.074,2.428,4.78,5.897,5.047,9.493c0.003,0.034,0.007,0.068,0.009,0.102c0.005,0.076,0.008,0.152,0.012,0.229
	c0.176,3.141-0.748,6.353-2.866,9.034l-0.077,0.098l-18.79,23.783l-8.327,10.539l-10.528-8.318l-0.353-0.279l-0.108-0.086
	c-3.074-2.429-4.781-5.898-5.047-9.494c-0.003-0.033-0.006-0.067-0.009-0.1c-0.005-0.077-0.008-0.153-0.012-0.23
	c-0.176-3.141,0.748-6.352,2.866-9.033l0.077-0.098l7.881-9.994l18.79-23.783l0.115-0.017c2.118-2.68,3.041-5.892,2.866-9.033
	c-0.004-0.077-0.007-0.153-0.012-0.23c-0.002-0.033-0.006-0.067-0.009-0.1c-0.266-3.597-1.973-7.066-5.047-9.494l-0.108-0.086
	l-0.353-0.279l-10.528-8.318L76.53-10.856L57.74,12.927l-0.077,0.098c-2.118,2.681-3.041,5.892-2.866,9.034
	c0.004,0.076,0.007,0.153,0.012,0.229c0.002,0.034,0.006,0.068,0.009,0.102c0.266,3.596,1.973,7.065,5.047,9.493l0.108,0.086
	l0.353,0.279l2.66,1.786"/>
</svg>
