<?xml version="1.0" encoding="UTF-8"?>
<svg width="143px" height="42px" viewBox="0 0 143 42" version="1.1" xmlns="http://www.w3.org/2000/svg" xmlns:xlink="http://www.w3.org/1999/xlink">
    <!-- Generator: Sketch 61.2 (89653) - https://sketch.com -->
    <title>Group 15</title>
    <desc>Created with Sketch.</desc>
    <defs>
        <polygon id="path-1" points="1.75923478 1.47763478 24.518713 1.47763478 24.518713 30.6086957 1.75923478 30.6086957"></polygon>
        <polygon id="path-3" points="0.00055217894 0.145391304 22.7665498 0.145391304 22.7665498 27.1744 0.00055217894 27.1744"></polygon>
    </defs>
    <g id="Page-1" stroke="none" stroke-width="1" fill="none" fill-rule="evenodd">
        <g id="Desktop-HD" transform="translate(-84.000000, -31.000000)">
            <g id="Group-15" transform="translate(84.000000, 29.000000)">
                <path d="M91.3411304,11.3623304 L96.5790435,11.3623304 L96.5790435,27.8967652 C96.5790435,29.3698087 97.2333043,30.0240696 98.7082609,30.0240696 L106.56513,30.0240696 C108.038174,30.0240696 108.694348,29.3698087 108.694348,27.8967652 L108.694348,11.3623304 L113.932261,11.3623304 L113.932261,29.205287 C113.932261,32.4804174 111.803043,34.6077217 108.529826,34.6077217 L96.7435652,34.6077217 C93.4684348,34.6077217 91.3411304,32.4804174 91.3411304,29.205287 L91.3411304,11.3623304 Z" id="Fill-1" fill="#FEFEFE"></path>
                <path d="M83.6286957,11.1863304 L77.9641739,11.1863304 L64.7067826,11.1863304 L64.7067826,33.9974609 L84.3001739,33.9974609 L84.3001739,29.9016348 L69.3841739,29.9016348 L69.3841739,24.9315478 L79.6208696,24.9315478 L79.6208696,19.9595478 L69.3841739,19.9595478 L69.3841739,15.2802435 L77.9641739,15.2802435 L81.709913,15.2802435 L81.7806957,15.2802435 L82.2245217,15.2802435 L82.2953043,15.2802435 L82.8998261,15.2802435 L83.4125217,15.2802435 C83.8486957,15.2802435 84.3001739,15.2859826 84.3001739,14.8498087 L84.3001739,13.9621565 L84.3001739,13.8684174 L84.3001739,11.1863304 L83.6286957,11.1863304 Z" id="Fill-3" fill="#FEFEFE"></path>
                <path d="M136.925704,21.1772 L127.838748,19.7041565 C126.528313,19.507113 126.118922,19.0479826 126.118922,17.9039826 L126.118922,17.5749391 C126.118922,16.2664174 126.247096,15.2812 127.555617,15.2812 L138.454226,15.2812 L139.169704,15.2812 L139.240487,15.2812 L139.559965,15.2812 L139.630748,15.2812 L140.359617,15.2812 L140.749878,15.2812 C141.186052,15.2812 141.325704,15.2850261 141.325704,14.8488522 L141.325704,14.8450261 L141.325704,13.963113 L141.325704,13.919113 L141.325704,13.8693739 L141.325704,13.7756348 L141.325704,11.1853739 L138.454226,11.1853739 L125.918052,11.1853739 C122.644835,11.1853739 120.268835,13.3184174 120.268835,16.5935478 L120.268835,19.0479826 C120.268835,21.8314609 122.193357,23.599113 125.468487,24.123287 L134.8864,25.5963304 C136.196835,25.7933739 136.939096,26.2525043 136.939096,27.3984174 L136.939096,27.7255478 C136.939096,29.0340696 136.068661,29.9025913 134.758226,29.9025913 L120.268835,29.9025913 L120.268835,33.9965043 L136.395791,33.9965043 C139.669009,33.9965043 142.201878,31.9820696 142.201878,28.7069391 L142.201878,26.2525043 C142.201878,23.4690261 140.198922,21.7013739 136.925704,21.1772" id="Fill-5" fill="#FEFEFE"></path>
                <path d="M57.3947478,15.5404174 L57.3947478,11.1863304 L36.0470957,11.1863304 L36.0470957,13.9200696 L36.0470957,13.9640696 L36.0470957,14.8498087 C36.0470957,15.2859826 36.6707478,15.2802435 37.1069217,15.2802435 L38.2260522,15.2802435 L38.2949217,15.2802435 L49.7904,15.2802435 L49.7904,16.1946783 L36.0470957,29.9456348 L36.0470957,33.9974609 L57.3947478,33.9974609 L57.3947478,29.9035478 L43.9422261,29.9035478 L43.9422261,29.2913739 L57.3947478,15.5404174 Z" id="Fill-7" fill="#FEFEFE"></path>
                <g id="Group-11" transform="translate(3.826087, 13.246296)">
                    <mask id="mask-2" fill="white">
                        <use xlink:href="#path-1"></use>
                    </mask>
                    <g id="Clip-10"></g>
                    <path d="M17.2051478,2.21033043 L16.6331478,2.94302609 L16.0630609,3.67572174 C16.0630609,3.67572174 15.8717565,3.91867826 15.4910609,4.40650435 C18.0774957,6.42476522 19.3688,7.43293913 19.3688,7.43293913 L19.3764522,7.43676522 L19.410887,7.46546087 L19.414713,7.46928696 C19.414713,7.46928696 19.4510609,7.5018087 19.5122783,7.55728696 C19.5696696,7.6165913 19.6729739,7.68354783 19.766713,7.79067826 C19.9637565,7.99346087 20.1971478,8.29189565 20.3769739,8.62093913 C20.5434087,8.95763478 20.6773217,9.31346087 20.7232348,9.59467826 C20.7653217,9.7285913 20.7595826,9.85676522 20.7768,9.93902609 C20.7882783,10.0232 20.7959304,10.0729391 20.7959304,10.0729391 L20.7959304,10.0767652 L20.7978435,10.0939826 L20.7978435,10.0997217 L20.7997565,10.1590261 L20.8016696,10.1647652 L20.8054957,10.4918957 C20.8054957,10.4918957 20.7921043,10.637287 20.7729739,10.8534609 C20.7366261,11.0677217 20.690713,11.3565913 20.5797565,11.6244174 C20.4898435,11.8998957 20.3406261,12.1505043 20.2296696,12.3398957 C20.1014957,12.5197217 20.0173217,12.6402435 20.0173217,12.6402435 L20.0134957,12.6440696 L19.986713,12.6785043 L19.9809739,12.6842435 L12.2312348,22.4943304 L12.2254957,22.5019826 L9.94323478,25.3906783 L7.05836522,23.1122435 L7.05071304,23.1065043 L6.91106087,22.9955478 L6.90532174,22.9917217 L6.86706087,22.961113 L6.86132174,22.957287 L6.53993043,22.6684174 C6.39836522,22.5077217 6.24914783,22.3546783 6.2568,22.3470261 C6.2568,22.3470261 6.17836522,22.2379826 6.05975652,22.0753739 C6.01001739,21.9873739 5.95071304,21.8859826 5.88375652,21.7788522 C5.83210435,21.6621565 5.77662609,21.5397217 5.72114783,21.417287 C5.6848,21.2872 5.62932174,21.1628522 5.59871304,21.0385043 C5.57575652,20.9141565 5.54132174,20.801287 5.52410435,20.6998957 C5.49923478,20.4913739 5.48201739,20.3536348 5.48201739,20.3536348 L5.48010435,20.3478957 L5.4781913,20.3287652 L5.4781913,20.3249391 L5.47627826,20.2675478 L5.47627826,20.2618087 L5.47245217,19.9327652 C5.47245217,19.9327652 5.48393043,19.7873739 5.50306087,19.5712 C5.5394087,19.3569391 5.58723478,19.0699826 5.69627826,18.8002435 C5.78810435,18.5247652 5.9354087,18.2741565 6.04636522,18.0847652 C6.17453913,17.9068522 6.25871304,17.7863304 6.25871304,17.7863304 L6.26253913,17.7805913 L6.29123478,17.7461565 L6.29506087,17.7404174 L12.2637565,10.1858087 L14.0486261,7.92650435 L13.3197565,7.35067826 L12.590887,6.77485217 L11.8620174,6.19902609 C11.8620174,6.19902609 11.6190609,6.00772174 11.1331478,5.6232 L9.3501913,7.88250435 L3.38149565,15.437113 L3.37575652,15.4428522 L3.34897391,15.477287 L3.34323478,15.4849391 C3.34323478,15.4849391 3.16723478,15.7183304 2.92045217,16.0798957 C2.69088696,16.4510261 2.40201739,16.9656348 2.2088,17.5204174 C1.99453913,18.0694609 1.88549565,18.6510261 1.82045217,19.085287 C1.77071304,19.5214609 1.75923478,19.8141565 1.75923478,19.8141565 L1.76688696,20.4512 L1.76688696,20.4626783 L1.77262609,20.5774609 L1.77262609,20.5908522 L1.77645217,20.6367652 L1.77836522,20.6482435 C1.77836522,20.6482435 1.81088696,20.9160696 1.86062609,21.3158957 C1.89506087,21.5167652 1.95436522,21.7501565 2.00984348,21.9988522 C2.07297391,22.2456348 2.17053913,22.5019826 2.25853913,22.7621565 C2.35993043,23.0146783 2.48045217,23.2614609 2.58758261,23.4948522 C2.71766957,23.7148522 2.84010435,23.9214609 2.9434087,24.0993739 C3.17488696,24.4379826 3.34514783,24.6522435 3.34514783,24.6522435 C3.34514783,24.6522435 3.40445217,24.7440696 3.5154087,24.8607652 C3.62445217,24.981287 3.77175652,25.1400696 3.91714783,25.2988522 C4.22706087,25.5953739 4.55610435,25.8689391 4.55610435,25.8689391 L4.56375652,25.8765913 L4.60201739,25.905287 L4.60966957,25.9110261 L4.7474087,26.0219826 L4.75506087,26.0258087 L10.5477565,30.6037217 C10.5496696,30.6056348 10.5515826,30.6075478 10.5534957,30.6094609 C10.5554087,30.6075478 10.5573217,30.6037217 10.5592348,30.6018087 L15.1409739,24.805287 L15.1448,24.7976348 L22.8964522,14.9875478 L22.9002783,14.9818087 L22.9270609,14.9473739 L22.934713,14.9397217 C22.934713,14.9397217 23.110713,14.7082435 23.3555826,14.3466783 C23.5851478,13.9736348 23.8740174,13.4590261 24.0672348,12.9042435 C24.2814957,12.3552 24.3924522,11.7755478 24.4555826,11.341287 C24.5053217,10.9032 24.518713,10.6105043 24.518713,10.6105043 L24.5110609,9.97154783 L24.5110609,9.96198261 L24.5053217,9.84911304 L24.5034087,9.83763478 L24.4995826,9.78598261 L24.4995826,9.77450435 C24.4995826,9.77450435 24.4881043,9.68267826 24.4689739,9.52006957 C24.4421913,9.35554783 24.4345391,9.12406957 24.3618435,8.84476522 C24.2585391,8.28424348 24.0079304,7.55728696 23.6578435,6.87815652 C23.2981913,6.20285217 22.8218435,5.59833043 22.4220174,5.19276522 C22.226887,4.98233043 22.0374957,4.83885217 21.9169739,4.72598261 C21.7926261,4.61693913 21.7199304,4.55572174 21.7199304,4.55572174 L21.7122783,4.54998261 L21.6701913,4.51554783 L21.6644522,4.5098087 C21.6644522,4.5098087 20.3674087,3.49972174 17.7771478,1.47763478 C17.3964522,1.96546087 17.2051478,2.21033043 17.2051478,2.21033043" id="Fill-9" fill="#FEFEFE" mask="url(#mask-2)"></path>
                </g>
                <g id="Group-14" transform="translate(0.000000, 1.768035)">
                    <mask id="mask-4" fill="white">
                        <use xlink:href="#path-3"></use>
                    </mask>
                    <g id="Clip-13"></g>
                    <path d="M1.59088696,15.8090087 C0.471756522,17.2265739 -0.0906782609,18.9961391 0.012626087,20.8077913 L0.0221913043,20.9627478 C0.173321739,23.0154435 1.18914783,24.9246609 2.80375652,26.2006609 L4.20984348,27.1744 L6.28166957,24.0905739 L5.24288696,23.392313 L5.10897391,23.2870957 C4.29401739,22.6424 3.80236522,21.720313 3.72584348,20.6930087 L3.72010435,20.5858783 C3.67036522,19.6944 3.94966957,18.816313 4.50636522,18.112313 L14.5785391,5.36187826 L17.6566261,7.79526957 C18.4734957,8.43996522 18.9632348,9.36205217 19.0397565,10.3931826 L19.0454957,10.496487 C19.0856696,11.2234435 18.9077565,11.9408348 18.5385391,12.564487 L10.4578435,22.7935304 L13.3714087,25.0968348 L20.6715826,15.8568348 L20.7194087,15.8510957 L21.174713,15.2733565 C22.2938435,13.8557913 22.8562783,12.0862261 22.754887,10.2784 L22.7453217,10.1196174 C22.5922783,8.06883478 21.5783652,6.15961739 19.9580174,4.8797913 L13.9663652,0.145008696 L1.59088696,15.8090087 Z" id="Fill-12" fill="#FEFEFE" mask="url(#mask-4)"></path>
                </g>
            </g>
        </g>
    </g>
</svg>