<?xml version="1.0" encoding="UTF-8"?>
<svg width="315px" height="14px" viewBox="0 0 315 14" version="1.1" xmlns="http://www.w3.org/2000/svg" xmlns:xlink="http://www.w3.org/1999/xlink">
    <!-- Generator: Sketch 61.2 (89653) - https://sketch.com -->
    <title>Group 38</title>
    <desc>Created with Sketch.</desc>
    <defs>
        <polygon id="path-1" points="0 0.0833777778 10.3447556 0.0833777778 10.3447556 10.6549333 0 10.6549333"></polygon>
        <polygon id="path-3" points="0 13.8936778 314.093889 13.8936778 314.093889 -0.000155555556 0 -0.000155555556"></polygon>
    </defs>
    <g id="Page-1" stroke="none" stroke-width="1" fill="none" fill-rule="evenodd">
        <g id="Desktop-HD" transform="translate(-70.000000, -967.000000)">
            <g id="Group-38" transform="translate(70.000000, 967.000000)">
                <g id="Group-3" transform="translate(0.000000, 0.671456)">
                    <mask id="mask-2" fill="white">
                        <use xlink:href="#path-1"></use>
                    </mask>
                    <g id="Clip-2"></g>
                    <path d="M6.72031111,4.76521111 C7.40008889,4.76521111 7.70186667,4.46304444 7.70186667,3.78365556 L7.70186667,3.17932222 C7.70186667,2.49993333 7.40008889,2.19776667 6.72031111,2.19776667 L2.41608889,2.19776667 L2.41608889,4.76521111 L6.72031111,4.76521111 Z M-7.77777778e-05,0.0833777778 L7.62642222,0.0833777778 C9.13647778,0.0833777778 10.1180333,1.06532222 10.1180333,2.57537778 L10.1180333,4.3876 C10.1180333,6.50198889 8.07947778,6.72832222 8.07947778,6.72832222 L10.3447556,9.44704444 L10.3447556,10.6549333 L8.15492222,10.6549333 L5.21025556,6.8796 L2.41608889,6.8796 L2.41608889,10.6549333 L-7.77777778e-05,10.6549333 L-7.77777778e-05,0.0833777778 Z" id="Fill-1" fill="#FFFFFF" mask="url(#mask-2)"></path>
                </g>
                <path d="M18.4986278,6.64475 L18.4986278,6.04080556 C18.4986278,5.43686111 18.2719056,5.21013889 17.6679611,5.21013889 L15.8557389,5.21013889 C15.2517944,5.21013889 15.0250722,5.43686111 15.0250722,6.04080556 L15.0250722,6.64475 L18.4986278,6.64475 Z M12.7597944,5.58775 C12.7597944,4.37947222 13.6659056,3.47336111 14.8741833,3.47336111 L18.6495167,3.47336111 C19.8577944,3.47336111 20.7639056,4.37947222 20.7639056,5.58775 L20.7639056,8.30608333 L15.0250722,8.30608333 L15.0250722,8.75913889 C15.0250722,9.36308333 15.2517944,9.58980556 15.8557389,9.58980556 L20.3862944,9.58980556 L20.3862944,11.3265833 L14.8741833,11.3265833 C13.6659056,11.3265833 12.7597944,10.4200833 12.7597944,9.21219444 L12.7597944,5.58775 Z" id="Fill-4" fill="#FFFFFF"></path>
                <mask id="mask-4" fill="white">
                    <use xlink:href="#path-3"></use>
                </mask>
                <g id="Clip-7"></g>
                <polygon id="Fill-6" fill="#FFFFFF" mask="url(#mask-4)" points="23.4060556 11.3262333 25.6713333 11.3262333 25.6713333 0.905955556 23.4060556 0.905955556"></polygon>
                <path d="M28.5401667,11.3262333 L30.8054444,11.3262333 L30.8054444,3.62428889 L28.5401667,3.62428889 L28.5401667,11.3262333 Z M28.5401667,2.71817778 L30.8054444,2.71817778 L30.8054444,0.4529 L28.5401667,0.4529 L28.5401667,2.71817778 Z" id="Fill-8" fill="#FFFFFF" mask="url(#mask-4)"></path>
                <path d="M37.4497278,9.74065556 C38.2803944,9.74065556 38.6580056,9.36304444 38.6580056,8.53276667 L38.6580056,8.15476667 L36.24145,8.15476667 C35.71295,8.15476667 35.4866167,8.38148889 35.4866167,8.90998889 L35.4866167,8.98582222 C35.4866167,9.51393333 35.71295,9.74065556 36.24145,9.74065556 L37.4497278,9.74065556 Z M33.22095,8.7591 C33.22095,7.55082222 34.12745,6.64471111 35.3353389,6.64471111 L38.6580056,6.64471111 L38.6580056,6.19165556 C38.6580056,5.58771111 38.4312833,5.36098889 37.8273389,5.36098889 L33.9007278,5.36098889 L33.9007278,3.62421111 L38.8088944,3.62421111 C40.0171722,3.62421111 40.9232833,4.53071111 40.9232833,5.7386 L40.9232833,11.3265444 L39.26195,11.3265444 L38.8843389,10.4204333 L38.8088944,10.4204333 C38.8088944,10.4204333 38.3558389,11.4774333 37.0721167,11.4774333 L35.3353389,11.4774333 C34.12745,11.4774333 33.22095,10.5713222 33.22095,9.36304444 L33.22095,8.7591 Z" id="Fill-9" fill="#FFFFFF" mask="url(#mask-4)"></path>
                <path d="M48.7753778,9.36316111 C49.3793222,9.36316111 49.6060444,9.13643889 49.6060444,8.53249444 L49.6060444,6.26721667 C49.6060444,5.66327222 49.3793222,5.43655 48.7753778,5.43655 L47.1894889,5.43655 C46.3592111,5.43655 45.9816,5.81416111 45.9816,6.64482778 L45.9816,9.36316111 L48.7753778,9.36316111 Z M43.7163222,0.905994444 L45.9816,0.905994444 L45.9816,4.37955 L46.0570444,4.37955 C46.0570444,4.37955 46.5101,3.47343889 47.7938222,3.47343889 L49.7569333,3.47343889 C50.9652111,3.47343889 51.8713222,4.37955 51.8713222,5.58782778 L51.8713222,9.21227222 C51.8713222,10.4201611 50.9652111,11.3262722 49.7569333,11.3262722 L43.7163222,11.3262722 L43.7163222,0.905994444 Z" id="Fill-10" fill="#FFFFFF" mask="url(#mask-4)"></path>
                <path d="M54.5128889,11.3262333 L56.7781667,11.3262333 L56.7781667,3.62428889 L54.5128889,3.62428889 L54.5128889,11.3262333 Z M54.5128889,2.71817778 L56.7781667,2.71817778 L56.7781667,0.4529 L54.5128889,0.4529 L54.5128889,2.71817778 Z" id="Fill-11" fill="#FFFFFF" mask="url(#mask-4)"></path>
                <polygon id="Fill-12" fill="#FFFFFF" mask="url(#mask-4)" points="59.647 11.3262333 61.9122778 11.3262333 61.9122778 0.905955556 59.647 0.905955556"></polygon>
                <path d="M64.7815,11.3262333 L67.0467778,11.3262333 L67.0467778,3.62428889 L64.7815,3.62428889 L64.7815,11.3262333 Z M64.7815,2.71817778 L67.0467778,2.71817778 L67.0467778,0.4529 L64.7815,0.4529 L64.7815,2.71817778 Z" id="Fill-13" fill="#FFFFFF" mask="url(#mask-4)"></path>
                <path d="M70.5195167,5.43666667 L69.2357944,5.43666667 L69.2357944,3.62444444 L70.6707944,3.62444444 L71.4256278,1.51005556 L72.7847944,1.51005556 L72.7847944,3.62444444 L75.20135,3.62444444 L75.20135,4.75688889 L74.5215722,5.43666667 L72.7847944,5.43666667 L72.7847944,8.53261111 C72.7847944,9.13655556 73.0115167,9.36327778 73.6154611,9.36327778 L75.4276833,9.36327778 L75.4276833,11.3263889 L72.6339056,11.3263889 C71.4256278,11.3263889 70.5195167,10.4202778 70.5195167,9.212 L70.5195167,5.43666667 Z" id="Fill-14" fill="#FFFFFF" mask="url(#mask-4)"></path>
                <path d="M77.6926889,11.93045 L79.0518556,11.93045 C79.4294667,11.93045 79.6558,11.7037278 79.8070778,11.2506722 L79.8070778,11.0997833 L76.9374667,4.68156111 L76.9374667,3.62456111 L79.0518556,3.62456111 L81.0904111,8.75906111 L81.2416889,8.75906111 L82.9784667,3.62456111 L85.0924667,3.62456111 L85.0924667,4.68156111 L82.4495778,11.6286722 C81.9059111,13.0632833 81.0904111,13.8935611 79.5803556,13.8935611 L77.6926889,13.8935611 L77.6926889,11.93045 Z" id="Fill-15" fill="#FFFFFF" mask="url(#mask-4)"></path>
                <polygon id="Fill-16" fill="#FFFFFF" mask="url(#mask-4)" points="90.75465 10.8733333 96.4934833 -7.10542736e-15 98.6078722 -7.10542736e-15 98.6078722 1.20788889 92.8690389 12.0816111 90.75465 12.0816111"></polygon>
                <polygon id="Fill-17" fill="#FFFFFF" mask="url(#mask-4)" points="105.704472 0.754988889 114.765583 0.754988889 114.765583 2.11415556 114.01075 2.86937778 108.121028 2.86937778 108.121028 4.98376667 113.104639 4.98376667 113.104639 7.02232222 108.121028 7.02232222 108.121028 9.21215556 114.765583 9.21215556 114.765583 11.3265444 105.704472 11.3265444"></polygon>
                <path d="M117.256456,2.86922222 C117.256456,1.66133333 118.162567,0.754833333 119.370844,0.754833333 L122.315511,0.754833333 C123.448344,0.754833333 123.976844,1.51005556 123.976844,1.51005556 L124.052289,1.51005556 C124.052289,1.51005556 124.580789,0.754833333 125.713622,0.754833333 L131.980956,0.754833333 L131.980956,2.56744444 L126.695178,2.56744444 C126.091233,2.56744444 125.864511,2.79377778 125.864511,3.39772222 L125.864511,4.37966667 L132.207289,4.37966667 L132.207289,11.3263889 L129.942011,11.3263889 L129.942011,6.1915 L125.864511,6.1915 L125.864511,11.3263889 L123.599233,11.3263889 L123.599233,3.39772222 C123.599233,2.79377778 123.3729,2.56744444 122.768567,2.56744444 L120.3524,2.56744444 C119.748456,2.56744444 119.521733,2.79377778 119.521733,3.39772222 L119.521733,4.37966667 L122.240067,4.37966667 L122.240067,5.51211111 L121.862456,6.1915 L119.521733,6.1915 L119.521733,11.3263889 L117.256456,11.3263889 L117.256456,2.86922222 Z" id="Fill-18" fill="#FFFFFF" mask="url(#mask-4)"></path>
                <path d="M134.848544,5.7386 C134.848544,4.53071111 135.754656,3.62421111 136.962933,3.62421111 L141.946544,3.62421111 L141.946544,4.90793333 L141.266767,5.58771111 L137.944489,5.58771111 C137.340544,5.58771111 137.113822,5.81404444 137.113822,6.41837778 L137.113822,8.53276667 C137.113822,9.13671111 137.340544,9.36304444 137.944489,9.36304444 L141.946544,9.36304444 L141.946544,11.3265444 L136.962933,11.3265444 C135.754656,11.3265444 134.848544,10.4204333 134.848544,9.21215556 L134.848544,5.7386 Z" id="Fill-19" fill="#FFFFFF" mask="url(#mask-4)"></path>
                <path d="M144.361778,11.3262333 L146.627056,11.3262333 L146.627056,3.62428889 L144.361778,3.62428889 L144.361778,11.3262333 Z M144.361778,2.71817778 L146.627056,2.71817778 L146.627056,0.4529 L144.361778,0.4529 L144.361778,2.71817778 Z" id="Fill-20" fill="#FFFFFF" mask="url(#mask-4)"></path>
                <path d="M155.008311,6.64475 L155.008311,6.04080556 C155.008311,5.43686111 154.781589,5.21013889 154.177644,5.21013889 L152.365422,5.21013889 C151.761478,5.21013889 151.534756,5.43686111 151.534756,6.04080556 L151.534756,6.64475 L155.008311,6.64475 Z M149.269478,5.58775 C149.269478,4.37947222 150.175589,3.47336111 151.383867,3.47336111 L155.1592,3.47336111 C156.367478,3.47336111 157.273589,4.37947222 157.273589,5.58775 L157.273589,8.30608333 L151.534756,8.30608333 L151.534756,8.75913889 C151.534756,9.36308333 151.761478,9.58980556 152.365422,9.58980556 L156.895978,9.58980556 L156.895978,11.3265833 L151.383867,11.3265833 C150.175589,11.3265833 149.269478,10.4200833 149.269478,9.21219444 L149.269478,5.58775 Z" id="Fill-21" fill="#FFFFFF" mask="url(#mask-4)"></path>
                <path d="M159.840178,3.62440556 L161.501122,3.62440556 L161.878733,4.53051667 L161.954567,4.53051667 C161.954567,4.53051667 162.407622,3.47351667 163.690956,3.47351667 L165.578622,3.47351667 C166.7869,3.47351667 167.693011,4.37962778 167.693011,5.58751667 L167.693011,11.32635 L165.427733,11.32635 L165.427733,6.26729444 C165.427733,5.66335 165.2014,5.43662778 164.597067,5.43662778 L163.313733,5.43662778 C162.483067,5.43662778 162.105456,5.81423889 162.105456,6.64490556 L162.105456,11.32635 L159.840178,11.32635 L159.840178,3.62440556 Z" id="Fill-22" fill="#FFFFFF" mask="url(#mask-4)"></path>
                <path d="M170.259483,5.7386 C170.259483,4.53071111 171.165594,3.62421111 172.373872,3.62421111 L177.357483,3.62421111 L177.357483,4.90793333 L176.677706,5.58771111 L173.355428,5.58771111 C172.751483,5.58771111 172.524761,5.81404444 172.524761,6.41837778 L172.524761,8.53276667 C172.524761,9.13671111 172.751483,9.36304444 173.355428,9.36304444 L177.357483,9.36304444 L177.357483,11.3265444 L172.373872,11.3265444 C171.165594,11.3265444 170.259483,10.4204333 170.259483,9.21215556 L170.259483,5.7386 Z" id="Fill-23" fill="#FFFFFF" mask="url(#mask-4)"></path>
                <path d="M179.848394,11.93045 L181.207561,11.93045 C181.585172,11.93045 181.811506,11.7037278 181.962783,11.2506722 L181.962783,11.0997833 L179.093172,4.68156111 L179.093172,3.62456111 L181.207561,3.62456111 L183.246117,8.75906111 L183.397394,8.75906111 L185.134172,3.62456111 L187.248172,3.62456111 L187.248172,4.68156111 L184.605283,11.6286722 C184.061617,13.0632833 183.246117,13.8935611 181.736061,13.8935611 L179.848394,13.8935611 L179.848394,11.93045 Z" id="Fill-24" fill="#FFFFFF" mask="url(#mask-4)"></path>
                <polygon id="Fill-25" fill="#FFFFFF" mask="url(#mask-4)" points="192.91055 10.8733333 198.649383 -7.10542736e-15 200.763772 -7.10542736e-15 200.763772 1.20788889 195.024939 12.0816111 192.91055 12.0816111"></polygon>
                <path d="M207.709211,3.24691111 C207.709211,1.73685556 208.690767,0.754911111 210.201211,0.754911111 L217.072489,0.754911111 L217.072489,2.11407778 L216.317267,2.8693 L211.107322,2.8693 C210.427544,2.8693 210.125378,3.17146667 210.125378,3.85085556 L210.125378,8.23052222 C210.125378,8.9103 210.427544,9.21207778 211.107322,9.21207778 L217.072489,9.21207778 L217.072489,11.3264667 L210.201211,11.3264667 C208.690767,11.3264667 207.709211,10.3445222 207.709211,8.83446667 L207.709211,3.24691111 Z" id="Fill-26" fill="#FFFFFF" mask="url(#mask-4)"></path>
                <path d="M224.244961,9.51412778 C224.849294,9.51412778 225.075628,9.28740556 225.075628,8.68346111 L225.075628,6.26729444 C225.075628,5.66335 224.849294,5.43662778 224.244961,5.43662778 L222.130572,5.43662778 C221.526628,5.43662778 221.300294,5.66335 221.300294,6.26729444 L221.300294,8.68346111 C221.300294,9.28740556 221.526628,9.51412778 222.130572,9.51412778 L224.244961,9.51412778 Z M219.035017,5.58751667 C219.035017,4.37962778 219.941128,3.47351667 221.149406,3.47351667 L225.226517,3.47351667 C226.434794,3.47351667 227.340906,4.37962778 227.340906,5.58751667 L227.340906,9.36323889 C227.340906,10.5711278 226.434794,11.4772389 225.226517,11.4772389 L221.149406,11.4772389 C219.941128,11.4772389 219.035017,10.5711278 219.035017,9.36323889 L219.035017,5.58751667 Z" id="Fill-27" fill="#FFFFFF" mask="url(#mask-4)"></path>
                <path d="M229.907183,3.62440556 L231.568128,3.62440556 L231.945739,4.53051667 L232.021572,4.53051667 C232.021572,4.53051667 232.474628,3.47351667 233.757961,3.47351667 L235.645628,3.47351667 C236.853906,3.47351667 237.760017,4.37962778 237.760017,5.58751667 L237.760017,11.32635 L235.494739,11.32635 L235.494739,6.26729444 C235.494739,5.66335 235.268406,5.43662778 234.664072,5.43662778 L233.380739,5.43662778 C232.549683,5.43662778 232.172461,5.81423889 232.172461,6.64490556 L232.172461,11.32635 L229.907183,11.32635 L229.907183,3.62440556 Z" id="Fill-28" fill="#FFFFFF" mask="url(#mask-4)"></path>
                <path d="M240.47765,3.62440556 L242.138594,3.62440556 L242.516206,4.53051667 L242.592039,4.53051667 C242.592039,4.53051667 243.045094,3.47351667 244.328428,3.47351667 L246.216094,3.47351667 C247.424372,3.47351667 248.330483,4.37962778 248.330483,5.58751667 L248.330483,11.32635 L246.065206,11.32635 L246.065206,6.26729444 C246.065206,5.66335 245.838872,5.43662778 245.234539,5.43662778 L243.951206,5.43662778 C243.120539,5.43662778 242.742928,5.81423889 242.742928,6.64490556 L242.742928,11.32635 L240.47765,11.32635 L240.47765,3.62440556 Z" id="Fill-29" fill="#FFFFFF" mask="url(#mask-4)"></path>
                <path d="M256.635711,6.64475 L256.635711,6.04080556 C256.635711,5.43686111 256.408989,5.21013889 255.805044,5.21013889 L253.992822,5.21013889 C253.388878,5.21013889 253.162156,5.43686111 253.162156,6.04080556 L253.162156,6.64475 L256.635711,6.64475 Z M250.896878,5.58775 C250.896878,4.37947222 251.802989,3.47336111 253.011267,3.47336111 L256.7866,3.47336111 C257.994878,3.47336111 258.900989,4.37947222 258.900989,5.58775 L258.900989,8.30608333 L253.162156,8.30608333 L253.162156,8.75913889 C253.162156,9.36308333 253.388878,9.58980556 253.992822,9.58980556 L258.523378,9.58980556 L258.523378,11.3265833 L253.011267,11.3265833 C251.802989,11.3265833 250.896878,10.4200833 250.896878,9.21219444 L250.896878,5.58775 Z" id="Fill-30" fill="#FFFFFF" mask="url(#mask-4)"></path>
                <path d="M261.316611,5.7386 C261.316611,4.53071111 262.222722,3.62421111 263.431,3.62421111 L268.414611,3.62421111 L268.414611,4.90793333 L267.734833,5.58771111 L264.412556,5.58771111 C263.808611,5.58771111 263.581889,5.81404444 263.581889,6.41837778 L263.581889,8.53276667 C263.581889,9.13671111 263.808611,9.36304444 264.412556,9.36304444 L268.414611,9.36304444 L268.414611,11.3265444 L263.431,11.3265444 C262.222722,11.3265444 261.316611,10.4204333 261.316611,9.21215556 L261.316611,5.7386 Z" id="Fill-31" fill="#FFFFFF" mask="url(#mask-4)"></path>
                <path d="M271.433828,5.43666667 L270.150106,5.43666667 L270.150106,3.62444444 L271.585106,3.62444444 L272.339939,1.51005556 L273.699106,1.51005556 L273.699106,3.62444444 L276.115661,3.62444444 L276.115661,4.75688889 L275.435883,5.43666667 L273.699106,5.43666667 L273.699106,8.53261111 C273.699106,9.13655556 273.925828,9.36327778 274.529772,9.36327778 L276.341994,9.36327778 L276.341994,11.3263889 L273.548217,11.3263889 C272.339939,11.3263889 271.433828,10.4202778 271.433828,9.212 L271.433828,5.43666667 Z" id="Fill-32" fill="#FFFFFF" mask="url(#mask-4)"></path>
                <path d="M278.833333,11.3262333 L281.098611,11.3262333 L281.098611,3.62428889 L278.833333,3.62428889 L278.833333,11.3262333 Z M278.833333,2.71817778 L281.098611,2.71817778 L281.098611,0.4529 L278.833333,0.4529 L278.833333,2.71817778 Z" id="Fill-33" fill="#FFFFFF" mask="url(#mask-4)"></path>
                <polygon id="Fill-34" fill="#FFFFFF" mask="url(#mask-4)" points="283.287706 4.68148333 283.287706 3.62448333 285.477539 3.62448333 287.365206 8.83442778 287.516483 8.83442778 289.40415 3.62448333 291.593594 3.62448333 291.593594 4.68148333 288.724372 11.3264278 286.156928 11.3264278"></polygon>
                <path d="M293.782611,11.3262333 L296.047889,11.3262333 L296.047889,3.62428889 L293.782611,3.62428889 L293.782611,11.3262333 Z M293.782611,2.71817778 L296.047889,2.71817778 L296.047889,0.4529 L293.782611,0.4529 L293.782611,2.71817778 Z" id="Fill-35" fill="#FFFFFF" mask="url(#mask-4)"></path>
                <path d="M299.520978,5.43666667 L298.237256,5.43666667 L298.237256,3.62444444 L299.672256,3.62444444 L300.427089,1.51005556 L301.786256,1.51005556 L301.786256,3.62444444 L304.202811,3.62444444 L304.202811,4.75688889 L303.523033,5.43666667 L301.786256,5.43666667 L301.786256,8.53261111 C301.786256,9.13655556 302.012978,9.36327778 302.616922,9.36327778 L304.429144,9.36327778 L304.429144,11.3263889 L301.635367,11.3263889 C300.427089,11.3263889 299.520978,10.4202778 299.520978,9.212 L299.520978,5.43666667 Z" id="Fill-36" fill="#FFFFFF" mask="url(#mask-4)"></path>
                <path d="M306.693956,11.93045 L308.053122,11.93045 C308.430733,11.93045 308.657067,11.7037278 308.808344,11.2506722 L308.808344,11.0997833 L305.938733,4.68156111 L305.938733,3.62456111 L308.053122,3.62456111 L310.091678,8.75906111 L310.242956,8.75906111 L311.979733,3.62456111 L314.093733,3.62456111 L314.093733,4.68156111 L311.450844,11.6286722 C310.907178,13.0632833 310.091678,13.8935611 308.581622,13.8935611 L306.693956,13.8935611 L306.693956,11.93045 Z" id="Fill-37" fill="#FFFFFF" mask="url(#mask-4)"></path>
            </g>
        </g>
    </g>
</svg>